/* XPM */
static char *_0f368804edd4ec984a20904ff0a1784[] = {
/* columns rows colors chars-per-pixel */
"64 64 237 2 ",
"   c None",
".  c #FF7800",
"X  c #FE8509",
"o  c #FD8C17",
"O  c #FE961C",
"+  c #FE9C24",
"@  c #FC9A27",
"#  c #E78F33",
"$  c #FDA22D",
"%  c #FFA224",
"&  c #FDA431",
"*  c #FEAA35",
"=  c #F7A438",
"-  c #FEBA3C",
";  c #FEB537",
":  c #A9834E",
">  c #94AC7C",
",  c #AAAC6E",
"<  c #E69D57",
"1  c #C8A049",
"2  c #FAAE48",
"3  c #FFB641",
"4  c #FEBB44",
"5  c #FEBC4A",
"6  c #F8B14D",
"7  c #F5AB53",
"8  c #FAB957",
"9  c #EBB251",
"0  c #DAAB78",
"q  c #F9BA77",
"w  c #EDB66C",
"e  c #B7C47A",
"r  c #E9C65B",
"t  c #FBC958",
"y  c #FDD159",
"u  c #FFC04E",
"i  c #D4C56F",
"p  c #E8CE63",
"a  c #FCC863",
"s  c #F7C972",
"d  c #F7D172",
"f  c #1C79D8",
"g  c #0474FF",
"h  c #0D74FB",
"j  c #057CFF",
"k  c #077BF5",
"l  c #137BF7",
"z  c #1779F6",
"x  c #0972F2",
"c  c #2B7EF1",
"v  c #3A81B9",
"b  c #3FA9B5",
"n  c #5E9A9E",
"m  c #76AE9E",
"M  c #5C82A5",
"N  c #4687BC",
"B  c #5A85B2",
"V  c #668AAF",
"C  c #51B0B0",
"Z  c #69AEA9",
"A  c #19A5DA",
"S  c #18B4DC",
"D  c #39B4D6",
"F  c #2EB3CD",
"G  c #1683EB",
"H  c #049EE9",
"J  c #0584FF",
"K  c #058CFF",
"L  c #098CFE",
"P  c #0A86FD",
"I  c #168AF7",
"U  c #0593FF",
"Y  c #0994FE",
"T  c #059BFF",
"R  c #099CFF",
"E  c #009FF2",
"W  c #139EFC",
"Q  c #1697FD",
"!  c #2888ED",
"~  c #3980EC",
"^  c #2997E7",
"/  c #2A88F5",
"(  c #3282F4",
")  c #2694F5",
"_  c #3697F5",
"`  c #3692EE",
"'  c #03A8EB",
"]  c #1AACE6",
"[  c #02B2EA",
"{  c #17B4EA",
"}  c #00A3F3",
"|  c #01ABF4",
" . c #05A3FF",
".. c #0AA3FF",
"X. c #05ACFF",
"o. c #0AACFF",
"O. c #1CA4FD",
"+. c #15A8FE",
"@. c #00B4F4",
"#. c #05B3FF",
"$. c #0AB3FF",
"%. c #05BBFE",
"&. c #0BBBFF",
"*. c #03B9F4",
"=. c #13B5FE",
"-. c #14BCFE",
";. c #1BBAFF",
":. c #1CB5F9",
">. c #39B8E9",
",. c #26A8F9",
"<. c #35A4FA",
"1. c #24BDFE",
"2. c #2AB5FC",
"3. c #35B9FE",
"4. c #25B3E8",
"5. c #47B8C5",
"6. c #48A1C1",
"7. c #498CED",
"8. c #5195F3",
"9. c #659CF2",
"0. c #48BBEC",
"q. c #4CBDFE",
"w. c #47B5FC",
"e. c #59B9FD",
"r. c #54B0F3",
"t. c #65BBFC",
"y. c #75B8FC",
"u. c #36C3D9",
"i. c #29E6D6",
"p. c #04C3F4",
"a. c #05C1FF",
"s. c #0AC3FF",
"d. c #03CAFF",
"f. c #0CCBFF",
"g. c #11C4FE",
"h. c #11CAFF",
"j. c #1CC7FE",
"k. c #0DD3FE",
"l. c #06D5FF",
"z. c #12D3FE",
"x. c #16DAFF",
"c. c #19C4E9",
"v. c #29CAFF",
"b. c #28C5FE",
"n. c #3BC5FE",
"m. c #28D1FE",
"M. c #0CE6FE",
"N. c #14E4FF",
"B. c #13F8FF",
"V. c #0EF3FF",
"C. c #36EFFE",
"Z. c #47C6FE",
"A. c #5AC4FF",
"S. c #57C7FE",
"D. c #54D7FF",
"F. c #51C8F2",
"G. c #67C4EE",
"H. c #76CEEE",
"J. c #64CDFF",
"K. c #6BC7FE",
"L. c #79CDFD",
"P. c #67D6FB",
"I. c #78D8FE",
"U. c #78E7FF",
"Y. c #98B88C",
"T. c #96B290",
"R. c #88B3B6",
"E. c #A3B1AB",
"W. c #C5B786",
"Q. c #D2B394",
"!. c #EBBC94",
"~. c #CCBAAA",
"^. c #8FC594",
"/. c #ABC4B5",
"(. c #D9CD90",
"). c #EAD496",
"_. c #F1C78F",
"`. c #D3CFB8",
"'. c #EBD9A4",
"]. c #E8CEB6",
"[. c #F6DAB9",
"{. c #F3D0AF",
"}. c #F8E6A7",
"|. c #87CDFC",
" X c #88D6FC",
".X c #99D5FA",
"XX c #9BCEF8",
"oX c #BED3EC",
"OX c #A8CDF8",
"+X c #A5D3F9",
"@X c #AAD6FA",
"#X c #AED9FB",
"$X c #A7D8FB",
"%X c #B4D5FE",
"&X c #B3DAFA",
"*X c #BBDDFA",
"=X c #BDD5F3",
"-X c #B0CEF3",
";X c #8BE3FE",
":X c #89E6FF",
">X c #9AE6FF",
",X c #8BF0FF",
"<X c #A8E8FC",
"1X c #BEE0FA",
"2X c #B6EAFE",
"3X c #B9F5FF",
"4X c #DAD3C8",
"5X c #CDD6DA",
"6X c #E4DACA",
"7X c #F9DFC2",
"8X c #FCE6C9",
"9X c #FDEAD1",
"0X c #E5E5CE",
"qX c #C3DEFE",
"wX c #C5DDFA",
"eX c #DBE5E6",
"rX c #C4E2FA",
"tX c #CBE5FA",
"yX c #CDE9FA",
"uX c #D1E6FB",
"iX c #D4E9FA",
"pX c #DCECFB",
"aX c #D8E6FF",
"sX c #C8F9FF",
"dX c #D4F2FF",
"fX c #DCF6FF",
"gX c #E5E6E6",
"hX c #FDFBEC",
"jX c #E1EFFB",
"kX c #E5F1FB",
"lX c #EBF4FB",
"zX c #EDF9FF",
"xX c #E8F9FA",
"cX c #F1F6FC",
"vX c #F4FBFF",
"bX c #FDFDFE",
"nX c #F6F9F7",
/* pixels */
"                                                                                                                                ",
"                                                                                                                                ",
"                                                              y t                                                               ",
"                                                            d t u 4                                                             ",
"                                                          W.y t 3 ; w                                                           ",
"                                                  ^ ,.&.D r a 4 ; * = D -.2.r.                                                  ",
"                                            ,.:.-.f.k.l.^.y t ; * = O > d.k.f.s.:.<.                                            ",
"                                        :.h.h.&.s.f.s.{ r a 3 * & @ O # ] %.s.z.z.a.&.,.                                        ",
"                                    W s.g.-.o.&.$.$.f.Z 4 a * & @ @ o X n #.#.$.g.&.$.$.#.,.                                    ",
"                                ) o.s.$...o.$.$.X.s.P.i u 5 % O O o . . : X.a.s.$.-.x.$.o.$.o.)                                 ",
"                              Y $.$.$.R $.$.$.o.&.&.H.9X9X8X[.8X8X[.[.{.`.{ &.s.h.&.-.h.o.R o.&.+.                              ",
"                          ! R o.....o.T $.&.o.$.&.%.0.bXbXbXbXhXhXbXzXvXvX>.%.&.&.$.X.$.$.o.R o.$. .r.                          ",
"                        ) R T ..Y ..$...$.&.o.s.s.| H.bXbXnX).T.T.).vXxXbXG.| &.s.o.o.&...o.$.R ..o.$.)                         ",
"                      G U K R R R ..f.X.$.f.z.s.&.[ <XbXbX}.Z W I M [.zXcXXX' s.&.o.o.&.o...o.....R R $.I                       ",
"                    )  .R s.$...o.&.k.n.Z.C.N.&.&.' yXbXbX(.^ ! z f Q.zXcX1X[ s.#.$.X.$. .....o.....R Y X._                     ",
"                  ` T ..-.x.R R ....2.:X3XU.j.X.#.] xXbXbX'.v x k N {.xXlXtXc.%.#.X.#.&... ...$.$.Y ....T  .9.                  ",
"                  T K Y o.Y U R  .T Z.2XxX;Xm.%.@.>.cXbXvXnXW.M V Q.lXkXkXiX4.*.a.$.&.%.o.o...o.&.R L h.s.L K                   ",
"                P U Y R ..Y Y R ..#.1.P.:XS.h.a.[ F.bXbXvXlXcX9X8XlXkXpXpXaX>.@.j.P.P.-.X.o.o.o.&.&.....x.Y K Y                 ",
"              / J R Y Y ..Y R o.o. .#.j.1.$.%.&.} F.bXvXcXzXcX0X0XkXpXpXaXpX>.| Z.sXsXZ.%.#.$.o...R ..L =.R J U _               ",
"              J j o.K Y ....$... . .&.%.X.X.#.f.} G.bXbXcXcX`.C N `.kXpXaXaXF.@.v.,X,Xv.%.#.#.o.$...k.z...R U P U               ",
"            I j L Y o.$.$. .T R  .X.&.&.#.o.#.s.@.G.bXvXzXnXE.P x E.jXaXaXaX0.} s.g.-.&.X. . .X. ...s.N.o.R Y L R /             ",
"            j J P K N.f...R U T  .$.X.a.X.#.#.%.| /.bXcXvXxX`.B V 5XaXuXtXaXR.' s.#.X.%.#. ...X.R  .o.R $...Y P R J             ",
"          / j U Y ..g.$...Y R T o.o.X.&.X.X.#.X.C s zXcXzXjXkXgXgXaXuXtXrXqX0 F #.$.X.#.&.X. .o. .$.R K o.R ..P K U /           ",
"          j R U J Y K R &.U R  .$. .X.&.#.#.#.} , 8 xXvXvXpXdXgXeXuXaXqXqX*X* > } #.X.X.$.$. .X.$. .T U o.Y ....j o.L           ",
"        c R L g P R K U $.o.U X.#...#.&.#.$.| F - 8 kXzXlXjXaX).'.tXqXqXqX=X2 9 A } #.$.X.$.X.&. .U T U ..R L s.J Y  .9.        ",
"        I K j j K Y K L R &. .X. . .o.#.$.#.H T.- = gXzXcXjXuX_.).rXqXqX*X5X@ * m E X.X. .#.f.X.T R R R R R K o.R L %.c         ",
"        Y L g j K Y U L R o.&.%.T  .#.$.#.| ' i 4 $ 6XxXcXjXuXs s *X*XqX@X`.O - e H | X.$.a.a. . .T U  .R U R U J K s.Q         ",
"        o.=.Y Y R o. .K Q S.J.n.$. .X.%.X.| F y 4 $ _.kXlXjXuXt s =X*X%X$X0 O - p ] E &.&.#.o.o.T T U o.U L R L P J f.j         ",
"      c  .P L R $.s.$.o.S.<XsXI.;.#.X.#.#.@.F y 4 $ 2 iXkXkXeX8 8 oX%X@X-X# @ 4 y S [ a.X.X. .$.T T T X.U U U K L j k.J 7.      ",
"      z g g g K Y Y U Y S.sXfX X1.a.M.V.%.} C y 4 & O 6XxXkX0X8 8 oX%X+X~.X $ 3 y i.p. .#.X. .X.X.U R $.R K Y Y L K U U (       ",
"      I g g j R J L K T 2.K. Xq.$.s.V.B.k.*.u.y 4 * X < iXfXeX5 7 -XOX+X# X $ 3 r i.p.&.#. . . .#.U X.s...J K Y Y Y P J z       ",
"      l j g P Y J K ....U +.b.$.#. .s.a.a.*.S r - % 1 5.P.%X=X6 w %XOX:.n # + - i ' p.f.a.a.#. .=.2.=.#...J J o.N.L j P l       ",
"    ~ k U j j U j ....T X.X.*.R T X.#. .X.*.[ e 4 m *.h.P.dXjX6 8 yX:Xp.d.c.> - Y.} k.M.#.X.%.;.J.:XJ.,. ...R &.B.L j J z       ",
"    ~ h P U j K R o.o.T U U X. . .#.X. .#.X.X.u.u.#.#.=.D.>XkX6 q <X#.%.%.a.d.5.u.p.s.l.s.%.#.n.>XxX<XZ. .T J R o.Y j j h       ",
"    ~ h g J n.D.=.U U K U U .. . .#.X.#.X.X.#.#.a.a.%.d.v.S.dXw _.rX%.#.#.#.$.d.#.X.X.#.%. .T 3.>XsX>Xw.K K J R L Y h j l       ",
"    7.h g h .XsX) j U U U U  .X.X.#.X.X.X.X.X.#.#.a.k.d.#.n.fXq _.fX;.#.$.%.a.a.X.X.X.X.#.&.#.=.w.J.w.+.X.R Y R K Y j K I       ",
"      z g L q.A.L J U U U U T X.$.X. .X.X.X.X.#.d.s.#.%.p.Z.zX!.].xXn.#.%.#.s.%.X.#.X.X.X.d.X.T ..=.U U K T $.W O.K R K x       ",
"      z J ..j J Y P K U U U T %.#.T  . .X.X.#.s.a.X.#.#.#. XzX].6XcXP.#.#.#.s.X.#.X.X.%.&.X.#. .T T U U K K +. X>X+.K g c       ",
"      ( K L g J K R K U U U T #.1.w.2. . .#.s.#.#.#.Z.L. XiXjXpXpXlX<XX.#.s.#.#.X.#.a.#. .,.|..X|.w.U K J T L :X Xl J g c       ",
"      7.K j g P J K R L K T R .XkXkXpX&Xn.#.X.X.$.|.*X&X*XlXpXpXpXjXpXS.D.Z.1.#.%.&.X.X.q.rXtXrXrXrXe.K U U J b.t.y.t.8.9.      ",
"        U j g J K j R X. .U @XbXkXjXpXjXiXq. .$. XwX#X+XtXlXpXiXaXpXlX1X$X&X@X.XF. . .2.rXtXrXrXrXrXrX<. .Y t.$X%X1X1X&X        ",
"        W J j J U J K &.a.e.bXlXkXjXpXiXiXrX+.F.rX#X#X#XjXjXuXeXuXiXlXpX#X#X&X&XrXL. . XiXyXiXiXyXtXaX XK y.1X&X#X#X#X#X        ",
"        ` ,.e.K.q.,.T X.%.2XnXlXkXjXpXiXyXuXL..X1X#X-XrXnXjXuXtXtXuXjXlXrX@X&X&X1XyXK.#XpXpXpXeXpXuXpX@Xr.tX*X#X#X#X#X&X        ",
"          iXjXlXcXjX|.P Y kXnXlXkXjXpXiXyXtX1X1X&X@X#XjXkXiXtXtXtXtXpXlXpX@X&X1XrXtXtXyXpXpXpXpXpXpXaXrX*XtX1X&X#X#X#X          ",
"          iXpXpXkXnXnXwX<.pXnXlXkXpXpXiXyXtXwX*X&XOXiXxXkXiXrXrXtXrXiXkXlXtX&X*XrXuXpXpXpXkXlXlXkXjXpXpXuXtX1X&X#X#X&X          ",
"            iXpXjXjXjXlX*XyXpXrXrXtXuXyXtXrX1X&X@XtXkXpXjXyXrXrXrXrXtXkXjXkXtX*XtXuXpXjXkXkXiXyXuXpXpXyXtXrXrX*X&X#X            ",
"            iXpXiXiXiXiXjXwX#X@X&X&X*XtXrXrX&X&XtXjXpXjXpXrXrX1X1XrXrXpXjXpXjXyXrXtXpXpXiXrX1X*X#X#XrXtXrX1X*X&X&X#X            ",
"            uXtXtXuXuXiXrX$X#X#X#X&X*X1XrX*X*XyXiXiXpXpXyX*X1X*X*X1X1XiXjXpXeXpXiXyXiXiXrXrX*X&X#X#X@XrXtXwX*X#X#X              ",
"              rXrXtXtXtX&X#X#X#X@X+X@X@X&X*XtXyXiXiXiXiXrX*X&X&X&X1X1XrXpXiXiXuXyXyXrXrX1X*X&X#X#X#X#X&XrXrX*X#X-X              ",
"                1XrXrXrX#X&X@X@X+X@X@X@X@X#X*XrXtXtXyXiX*X*X&X&X#X&X&X1XiXiXuXuXuXuXtX1X&X&X#X#X#X#X#X#XrXrX*X@X                ",
"                *X*XrX*X#X#X@X@X$X#X&XrXrX=X@X&XrXrXtXrX&X&X#X#X#X&X&X&XrXuXiXjXkXkXpXpXrX&X#X#X#X#X#X#X1X*X&X&X                ",
"                  &X&X&X#X@X#X#X&X&X&XrXiXiX&X@X*XrXrX&X@X#X#X#X&X@X&X@X=XlXnXlXlXkXkXpXuX*X#X#X#X#X#X&X*X&X#X                  ",
"                    #X#X#X#X#X#X&X@X1XyXiXjXiX@X#X&X*X@X@X@X&X#X#X&X@X#XpXnXjXlXlXjXjXpXyX1X&X#X#X#X#X#X#X#X                    ",
"                      #X#X#X#X#X#X@X&XrXiXpXjX*X@X#X+X+X+X@X@X#X#X@X+XiXnXkXnXjXlXjXpXiXrX*X#X#X#X#X#X#X#X                      ",
"                        @X#X#X#X&X#X&XrXiXjXlXtX+X=XtXyX*X+X+X@X#X@X1XxXlXlXlXlXjXjXpXuXrX#X#X#X#X@X#X#X                        ",
"                          &X#X#X#X#X&XrXiXpXkXtXrXxXnXlXlXtX+X+X#X+XtXlXlXkXkXjXjXpXuXtX*X#X#X#X#X@X#X                          ",
"                            #X#X#X#X#X1XyXiXpXpXkXxXkXlXlXlX&X+X@X#XpXxXkXkXjXjXpXiXtX1X#X#X#X#X#X#X                            ",
"                              &X#X#X#X*XrXuXpXjXlXgXlXlXlXlXtX+X@X&XpXpXpXpXpXeXuXyXrX&X#X#X#X#X&X                              ",
"                                  #X#X&XwXtXiXpXpXjXjXlXlXlXiX@X+X#XtXiXiXiXyXyXrX1X&X#X#X#X#X                                  ",
"                                      #X&X1XyXiXpXjXjXjXjXjXuXXXXX+X=X1XrXtXrX1X&X#X#X#X#X                                      ",
"                                          &X1XtXuXiXiXpXpXjXrX*XwX*X&X@X@X&X&X#X#X#X#X                                          ",
"                                              rXrXtXuXiXiXuXyXuXtXrX*X@X+X+X#X#X&X                                              ",
"                                                        rXrXrXrX*X&X#X&X                                                        ",
"                                                                                                                                "
};
