/* XPM */
static char *_5baae9524e54a47dea596909bb668cf[] = {
/* columns rows colors chars-per-pixel */
"16 16 169 2 ",
"   c None",
".  c #DCA341",
"X  c #DAAC54",
"o  c #D2B75C",
"O  c #E7B85F",
"+  c #FCB86E",
"@  c #1A7BF7",
"#  c #56BFB7",
"$  c #52C3BB",
"%  c #16B7DF",
"&  c #3AADC5",
"*  c #37ABC8",
"=  c #0283FE",
"-  c #008BFF",
";  c #048BFE",
":  c #1089FE",
">  c #108EFC",
",  c #0695FF",
"<  c #0496FF",
"1  c #0A92FE",
"2  c #009AFF",
"3  c #039AFF",
"4  c #079AFF",
"5  c #009DFF",
"6  c #029EFF",
"7  c #049EFD",
"8  c #079EFF",
"9  c #0E98FD",
"0  c #0A9CFF",
"q  c #0F9DFD",
"w  c #1F95FE",
"e  c #139AFC",
"r  c #109CFF",
"t  c #1D9FFF",
"y  c #2682F1",
"u  c #2580F5",
"i  c #2988F2",
"p  c #398DF3",
"a  c #3C90F5",
"s  c #18BCE4",
"d  c #17B2EC",
"f  c #15BAED",
"g  c #00ACF4",
"h  c #01A0FF",
"j  c #06A1FD",
"k  c #04A2FF",
"l  c #0EA5FA",
"z  c #00A9FF",
"x  c #05AAFF",
"c  c #00ADFE",
"v  c #00ADFF",
"b  c #01ADFF",
"n  c #00AFFF",
"m  c #06ADFF",
"M  c #06AFFF",
"N  c #09A9FF",
"B  c #0BAFFF",
"V  c #1CAFF1",
"C  c #14A1FE",
"Z  c #17A9FB",
"A  c #12AAFE",
"S  c #0DB4F5",
"D  c #00B1FF",
"F  c #00B2FF",
"G  c #08B1FE",
"H  c #07B9FF",
"J  c #00BCFF",
"K  c #0DB8FF",
"L  c #1FB6FF",
"P  c #2AB5EF",
"I  c #3BBBE0",
"U  c #2EA7FE",
"Y  c #3FA3FD",
"T  c #34A8FE",
"R  c #22B1FF",
"E  c #22BFFF",
"W  c #28B8FF",
"Q  c #45A0F7",
"!  c #51A7FA",
"~  c #46BDFD",
"^  c #46BFFD",
"/  c #06C5FF",
"(  c #1CC8FE",
")  c #24C4FE",
"_  c #2FC9FE",
"`  c #4BCAEA",
"'  c #5AC7FF",
"]  c #5BC8FF",
"[  c #75D7FB",
"{  c #7BD9FA",
"}  c #DCBD8B",
"|  c #FFD288",
" . c #F6D092",
".. c #81C6D2",
"X. c #9DCDDF",
"o. c #BBC5C0",
"O. c #A4D0CF",
"+. c #B0CCDB",
"@. c #BBDDDF",
"#. c #87C8FC",
"$. c #83D0FC",
"%. c #82D7FF",
"&. c #8ED3FC",
"*. c #8FDEFF",
"=. c #94D6FC",
"-. c #AAC5E0",
";. c #A5DBF2",
":. c #ACD7FA",
">. c #ABD8FB",
",. c #ADD8FA",
"<. c #ADD8FB",
"1. c #ACD9FB",
"2. c #AFD8FA",
"3. c #AED9FB",
"4. c #AFDBFA",
"5. c #B0D9FB",
"6. c #B0DAFB",
"7. c #B3DAFA",
"8. c #B2DBFB",
"9. c #B3DBFB",
"0. c #B5DAF9",
"q. c #B5DBFA",
"w. c #B4DBFB",
"e. c #B7DCF9",
"r. c #B4DCFB",
"t. c #B9DEFB",
"y. c #BADEFA",
"u. c #BCDEF9",
"i. c #BEDFF9",
"p. c #BEDFFB",
"a. c #BBE0F0",
"s. c #BEE0FB",
"d. c #D6DBDE",
"f. c #D1DCDF",
"g. c #E0D8C0",
"h. c #EFEDDF",
"j. c #C8D1E0",
"k. c #C5D7EE",
"l. c #D7E3ED",
"z. c #C0E0F9",
"x. c #C1E0FA",
"c. c #C3E1FA",
"v. c #C7E2F9",
"b. c #C7E3F9",
"n. c #C5E3FA",
"m. c #C6E3FA",
"M. c #CAE5FA",
"N. c #CCE5F9",
"B. c #CEE6F9",
"V. c #CCE5FA",
"C. c #CDE6FA",
"Z. c #CFE7FA",
"A. c #D2E8FA",
"S. c #D3E8FA",
"D. c #D5E9FA",
"F. c #D7EBFA",
"G. c #D8E9FA",
"H. c #D9EAFA",
"J. c #D9EBFA",
"K. c #DBEBFA",
"L. c #D9ECFA",
"P. c #DAECFA",
"I. c #DEEDF9",
"U. c #D8ECFC",
"Y. c #DFEDFC",
"T. c #E0EFFA",
"R. c #ECF4FA",
"E. c #EDF4FA",
"W. c #F9F6FA",
/* pixels */
"                                ",
"            V o . P             ",
"        l F ` | + I J Z         ",
"      7 R ( { +.-.[ b x k       ",
"    9 h W ) *.d.j.%._ G G q     ",
"  i 6 k b g @.l.k.X.S x N 2 Q   ",
"  > , R b &  .h.f.} * D 2 , e   ",
"y = 0 ] / $ O g.o.X $ D A 4 1 a ",
"@ w e 6 z d s O...% f H ' 7 ; @ ",
"p : - C ~ M ) u.;.H z ' T t Q   ",
"  ! U =.W.&.<.Y.P.6.$.K.p.#.r.  ",
"  K.J.z.v.v.F.M.C.G.G.S.C.M.r.  ",
"    x.2.:.u.n.9.9.P.P.r.<.e.    ",
"      1.y.F.x.2.y.E.T.r.<.      ",
"        6.C.E.C.u.F.s.<.        ",
"            C.C.0.:.            "
};
