/* XPM */
static char *_9605a572640458eac6d72a6501c93cd[] = {
/* columns rows colors chars-per-pixel */
"32 32 175 2 ",
"   c None",
".  c #FF830C",
"X  c #FFAA1B",
"o  c #D0993C",
"O  c #FF9624",
"+  c #FFA422",
"@  c #FFAE25",
"#  c #FFB02F",
"$  c #FFA634",
"%  c #FFB230",
"&  c #FFB53D",
"*  c #B89351",
"=  c #B6A465",
"-  c #F1AE44",
";  c #FDBB4E",
":  c #E1A571",
">  c #FFC94D",
",  c #FFCB5B",
"<  c #D0C870",
"1  c #FFDA68",
"2  c #1D7AD1",
"3  c #0176FF",
"4  c #017EFF",
"5  c #097EFD",
"6  c #237CF3",
"7  c #7ABB9C",
"8  c #489EB3",
"9  c #6CB9AA",
"0  c #72B2A5",
"q  c #7EC99F",
"w  c #2FA9CF",
"e  c #3AAAC6",
"r  c #3CB7CD",
"t  c #0385FF",
"y  c #038CFF",
"u  c #0A8CFF",
"i  c #1A8BF8",
"p  c #0494FF",
"a  c #0994FD",
"s  c #059BFF",
"d  c #099CFE",
"f  c #1799F7",
"g  c #1A9CFF",
"h  c #1595FB",
"j  c #2C83EF",
"k  c #3F8BEE",
"l  c #2796ED",
"z  c #3C8BF1",
"x  c #358BF8",
"c  c #269FFC",
"v  c #04A4FF",
"b  c #0AA4FF",
"n  c #04ABFF",
"m  c #0AACFF",
"M  c #02ABF6",
"N  c #12ACFE",
"B  c #19A4FB",
"V  c #05B6F7",
"C  c #03B3FF",
"Z  c #0AB4FF",
"A  c #03BBFE",
"S  c #0CBBFF",
"D  c #09BEF3",
"F  c #15B6FC",
"G  c #1BBBFD",
"H  c #16B9F6",
"J  c #3AB6E5",
"K  c #27A7FA",
"L  c #36A7FF",
"P  c #37A8F7",
"I  c #26BAF3",
"U  c #24B3FE",
"Y  c #2BBBFE",
"T  c #32B5FE",
"R  c #39B8FB",
"E  c #719ECC",
"W  c #43BBC9",
"Q  c #76A7C5",
"!  c #7EBAC0",
"~  c #4392EF",
"^  c #4CBFE3",
"/  c #58A4F4",
"(  c #50BDFD",
")  c #6EBFFD",
"_  c #78BCF7",
"`  c #00C4FF",
"'  c #0CC4FF",
"]  c #04CEFF",
"[  c #0EC8FF",
"{  c #0AC7F5",
"}  c #09DDFF",
"|  c #2BC4FF",
" . c #21CAFF",
".. c #32C4FF",
"X. c #38CCFF",
"o. c #6FC5C4",
"O. c #47C9FF",
"+. c #57C1FF",
"@. c #59C4FD",
"#. c #67CBFE",
"$. c #73C8FC",
"%. c #6BD1FF",
"&. c #6BDFFE",
"*. c #7CD3FD",
"=. c #71E0FF",
"-. c #70E8FF",
";. c #7EE2FF",
":. c #9CB08D",
">. c #82BB9C",
",. c #AFB98C",
"<. c #A3B29B",
"1. c #8DB6A8",
"2. c #F5BA80",
"3. c #9FC38F",
"4. c #90C396",
"5. c #92D197",
"6. c #DCC29C",
"7. c #F2CF8F",
"8. c #EDC794",
"9. c #F5CE9F",
"0. c #DACBA8",
"q. c #DDD0AB",
"w. c #D7D1BB",
"e. c #E8D4A5",
"r. c #EBD1B0",
"t. c #87C9DD",
"y. c #B3CBD6",
"u. c #B8D6D3",
"i. c #83CDFE",
"p. c #89CBFB",
"a. c #93CEFB",
"s. c #8ED3FC",
"d. c #89DAFF",
"f. c #90D1FC",
"g. c #AEDCE5",
"h. c #A5D5FA",
"j. c #ABD6FA",
"k. c #A4DAFB",
"l. c #ADD9FB",
"z. c #B3DBFA",
"x. c #BCDEFA",
"c. c #B0D6FB",
"v. c #98E5FF",
"b. c #AFE4FF",
"n. c #A7EAFF",
"m. c #BFE0FA",
"M. c #BAE7FE",
"N. c #C4C5C4",
"B. c #DBDDCA",
"V. c #E8DFCF",
"C. c #E9DED2",
"Z. c #E2E0C6",
"A. c #FFE9C6",
"S. c #F8E7CC",
"D. c #EAE1D9",
"F. c #FFF4DD",
"G. c #C4D3E6",
"H. c #D3DDEE",
"J. c #DDE6EB",
"K. c #C4E2FA",
"L. c #CCE6FA",
"P. c #D3E5FB",
"I. c #D4EAFA",
"U. c #DCECFA",
"Y. c #EFEFEE",
"T. c #FDFAE9",
"R. c #E1EEFA",
"E. c #E5F1FA",
"W. c #EBF3FB",
"Q. c #E5F8FF",
"!. c #EAF0F7",
"~. c #FAF6F2",
"^. c #F6F9FC",
"/. c #FBFBFB",
"(. c #F9F8F8",
/* pixels */
"                                                                ",
"                              1 ,                               ",
"                            1.> # <.                            ",
"                    K F ' { < & + o D ' G P                     ",
"                l Z S Z A o.> # O . 8 ` ' S N P                 ",
"              f m m m Z V g.F.A.A.S.t.A S Z n n B               ",
"            a d b n A ' V M.F.! Q ~.m.V A m m m b b             ",
"          d Z b n O.-.' H Q.Z.j 2 C.I.H n C b m b v B           ",
"        h p b s v %.v.S I (.~.N.N.!.I.H | | n m m b n i         ",
"      ~ y d d b b S Z A R (.^.u.y.E.P.I &.=.C n b S b y /       ",
"      5 p S b s n Z C C O.T./.Q E R.P.J S S n b b ' b t h       ",
"    ~ y a m b s m C C M ,.~.Q.J.J.P.H.:.M C Z n m a b d y /     ",
"    i 5 u u n v b C C e ; Y.Q.Z.B.K.G.- w n C Z s s s d s K     ",
"    d t v p K ..n n n >.# V.Q.e.q.z.N.# 0 n A m s d a a u b     ",
"    t u b v d.b.F ] A 3.@ : Q.7.6.j.: + 5.A n n s v p a u p     ",
"  j 3 t t s R O.Z } ` 4.@ = M.8.6.i.* X q ` Z n N Z s s b 4 z   ",
"  6 t y s v s v n n n W 9 V d.9.0. .{ 7 r ] A G v.#.s v m 3 z   ",
"  6 5 %.g p p v n n n C ` ` X.r.w.Z C A C n C F d.+.p p u t z   ",
"  ~ t L u u p v n v n Z A C X.V.D...C A n n C n v y p T L t k   ",
"    t 3 u p y T s.$.S C Y i.K.E.W.*.Y S C C ( k.f.g t R #.x     ",
"    t 4 t s G U.^.W.k.U h.x.U.I.I.U.l.j.@.T I.I.U.p.c a.c.z.    ",
"    $.a.s.K #./.R.U.L.k.z.K.R.P.L.E.K.z.K.z.R.U.U.K.j.K.l.z.    ",
"      W.(.P.l.R.I.I.L.x.z.R.U.K.K.U.E.m.L.E.E.U.U.U.P.x.l.      ",
"      I.P.U.K.j.z.x.K.x.I.U.L.x.m.L.R.I.L.I.L.z.l.x.K.z.z.      ",
"        L.L.l.j.h.j.z.K.I.I.x.z.z.m.I.I.I.K.x.l.l.l.K.z.        ",
"        x.z.l.j.j.m.K.z.m.m.c.l.l.l.L.W.E.U.m.l.l.z.x.z.        ",
"          z.l.l.l.K.E.K.j.l.h.l.j.z.W.W.E.U.K.l.l.j.z.          ",
"            c.l.j.m.U.I.K.U.K.h.j.U.W.E.E.I.z.l.j.z.            ",
"              z.l.z.I.U.!.^.W.z.j.U.E.U.I.m.j.l.z.              ",
"                  l.x.I.U.R.W.x.h.K.L.L.x.l.l.                  ",
"                      K.L.I.U.K.x.l.j.l.l.                      ",
"                            K.K.K.z.                            "
};
